<svg xmlns="http://www.w3.org/2000/svg" xmlns:xlink="http://www.w3.org/1999/xlink" width="10" height="6" viewBox="0 0 10 6"><defs><path id="olcza" d="M1561.95 955.42a5.39 5.39 0 0 0-1.03-1.28l-.01-.01-.01-.01a6.19 6.19 0 0 1-.43-.45c-.1-.15-.13-.3-.07-.44.04-.12.2-.36.47-.72l.33-.47c.6-.84.87-1.37.79-1.6l-.04-.06c-.02-.03-.07-.06-.16-.1a.78.78 0 0 0-.33 0h-1.6l-.07.02-.03.02-.02.01a.24.24 0 0 0-.06.06 9.15 9.15 0 0 1-1.23 2.28l-.2.2c-.06.04-.1.06-.13.05l-.1-.02a.36.36 0 0 1-.1-.13.62.62 0 0 1-.07-.21 2.47 2.47 0 0 1-.01-.49 8.54 8.54 0 0 0 .01-.68 81.73 81.73 0 0 1 .02-.69c0-.1 0-.19-.02-.25a.88.88 0 0 0-.05-.17.3.3 0 0 0-.11-.13.59.59 0 0 0-.18-.08 3.3 3.3 0 0 0-.7-.07c-.64 0-1.06.04-1.24.13a.7.7 0 0 0-.2.17c-.06.08-.07.12-.03.13.21.03.36.1.45.23l.03.07a2.67 2.67 0 0 1 .12.65 4.48 4.48 0 0 1-.12 1.39l-.07.12a.1.1 0 0 1-.02.02.37.37 0 0 1-.14.03c-.05 0-.11-.02-.18-.08a1.28 1.28 0 0 1-.22-.2 6.66 6.66 0 0 1-.54-.94l-.08-.17a13.93 13.93 0 0 1-.46-1.01.36.36 0 0 0-.12-.18l-.03-.01a.53.53 0 0 0-.2-.08h-1.43c-.14 0-.24.04-.3.1l-.01.04a.18.18 0 0 0-.02.09l.03.15a18.5 18.5 0 0 0 1.87 3.47 12.05 12.05 0 0 0 .52.66l.13.13a6.23 6.23 0 0 0 .9.68 2.83 2.83 0 0 0 1.44.38h.6a.4.4 0 0 0 .28-.12l.02-.03a.58.58 0 0 0 .06-.25 1.9 1.9 0 0 1 .12-.71.7.7 0 0 1 .2-.24l.04-.02c.08-.03.18 0 .3.09.1.08.21.19.31.31l.36.43c.14.15.26.27.36.35l.1.06c.08.05.17.09.28.12.11.04.2.05.3.03l1.32-.02c.14 0 .24-.02.31-.07s.12-.1.13-.15a.45.45 0 0 0 0-.19.72.72 0 0 0-.03-.14z"/></defs><g><g transform="translate(-1552 -950)"><use fill="#fff" xlink:href="#olcza"/></g></g></svg>