<svg xmlns="http://www.w3.org/2000/svg" xmlns:xlink="http://www.w3.org/1999/xlink" width="12" height="12" viewBox="0 0 12 12"><defs><path id="flzda" d="M1508.73 66.5l-1.85-1.87a.96.96 0 0 0-1.36.03l-.94.94-.18-.1a9.3 9.3 0 0 1-2.25-1.64c-.85-.85-1.3-1.66-1.63-2.25l-.1-.18.63-.63.3-.3c.4-.4.4-1 .03-1.37l-1.85-1.86a.96.96 0 0 0-1.36.03l-.52.52.01.02a3.03 3.03 0 0 0-.62 1.53c-.25 2.03.68 3.89 3.2 6.41 3.47 3.49 6.28 3.22 6.4 3.21a3.13 3.13 0 0 0 1.53-.62l.54-.51c.38-.39.39-1 .02-1.37z"/></defs><g><g transform="translate(-1497 -57)"><use fill="#fff" xlink:href="#flzda"/></g></g></svg>