<svg xmlns="http://www.w3.org/2000/svg" xmlns:xlink="http://www.w3.org/1999/xlink" width="5" height="9" viewBox="0 0 5 9"><defs><path id="cz99a" d="M1603.81 948h-1.2c-1.34 0-2.22.87-2.22 2.21v1.03h-1.2c-.1 0-.19.08-.19.18v1.48c0 .1.08.18.19.18h1.2v3.74c0 .1.09.18.2.18h1.57c.1 0 .18-.08.18-.18v-3.74h1.41c.1 0 .2-.08.2-.18v-1.48c0-.05-.03-.1-.06-.13a.2.2 0 0 0-.13-.05h-1.42v-.87c0-.42.1-.63.66-.63h.81c.1 0 .19-.08.19-.18v-1.37c0-.1-.08-.19-.19-.19z"/></defs><g><g transform="translate(-1599 -948)"><g><use fill="#fff" xlink:href="#cz99a"/></g></g></g></svg>