<svg xmlns="http://www.w3.org/2000/svg" xmlns:xlink="http://www.w3.org/1999/xlink" width="10" height="7" viewBox="0 0 10 7"><defs><path id="f96ma" d="M1643.71 954.06v-3.32l3.18 1.66-3.18 1.66zm6.12-3.93a1.27 1.27 0 0 0-1.08-1c-1.24-.13-2.5-.13-3.75-.13s-2.5 0-3.74.14c-.53.06-.96.45-1.08.99-.18.76-.18 1.59-.18 2.37s0 1.61.17 2.37c.13.54.56.93 1.08 1 1.24.13 2.5.13 3.75.13s2.5 0 3.74-.14c.53-.06.96-.45 1.09-.99.17-.76.17-1.59.17-2.37s0-1.61-.17-2.37z"/></defs><g><g transform="translate(-1640 -949)"><g><use fill="#fff" xlink:href="#f96ma"/></g></g></g></svg>