<svg xmlns="http://www.w3.org/2000/svg" xmlns:xlink="http://www.w3.org/1999/xlink" width="51" height="62" viewBox="0 0 51 62"><defs><path id="gloka" d="M789.7 840.9c2.2-2.62 3.67-6.27 3.27-9.9-3.15.13-6.97 2.08-9.23 4.7-2.02 2.32-3.8 6.03-3.32 9.59 3.51.27 7.1-1.77 9.29-4.39zm7.9 23.04c-.08-7.85 6.46-11.61 6.76-11.8-3.68-5.33-9.41-6.06-11.46-6.15-4.87-.48-9.51 2.85-11.99 2.85-2.47 0-6.29-2.77-10.33-2.7a15.35 15.35 0 0 0-12.96 7.77c-5.52 9.49-1.41 23.55 3.97 31.24 2.63 3.77 5.77 8 9.89 7.85 3.96-.16 5.46-2.54 10.26-2.54s6.14 2.54 10.34 2.46c4.27-.08 6.97-3.84 9.58-7.62 3.02-4.37 4.27-8.6 4.34-8.82-.1-.04-8.32-3.16-8.4-12.54z"/></defs><g><g transform="translate(-755 -831)"><use fill="#585858" xlink:href="#gloka"/></g></g></svg>